TITLE ""
FILE "P1Q_t_0989-0998.mp3" MP3
  TRACK 01 AUDIO
    TITLE "P1Q_t_0989-0998_01"
    INDEX 01 00:00:00
  TRACK 02 AUDIO
    TITLE "P1Q_t_0989-0998_02"
    INDEX 01 00:01:27
  TRACK 03 AUDIO
    TITLE "P1Q_t_0989-0998_03"
    INDEX 01 00:01:49
  TRACK 04 AUDIO
    TITLE "P1Q_t_0989-0998_04"
    INDEX 01 00:04:10
  TRACK 05 AUDIO
    TITLE "P1Q_t_0989-0998_05"
    INDEX 01 00:04:30
  TRACK 06 AUDIO
    TITLE "P1Q_t_0989-0998_06"
    INDEX 01 00:08:47
  TRACK 07 AUDIO
    TITLE "P1Q_t_0989-0998_07"
    INDEX 01 00:09:17
  TRACK 08 AUDIO
    TITLE "P1Q_t_0989-0998_08"
    INDEX 01 00:10:42
  TRACK 09 AUDIO
    TITLE "P1Q_t_0989-0998_09"
    INDEX 01 00:10:66
  TRACK 10 AUDIO
    TITLE "P1Q_t_0989-0998_10"
    INDEX 01 00:14:44
  TRACK 11 AUDIO
    TITLE "P1Q_t_0989-0998_11"
    INDEX 01 00:14:63
  TRACK 12 AUDIO
    TITLE "P1Q_t_0989-0998_12"
    INDEX 01 00:20:25
  TRACK 13 AUDIO
    TITLE "P1Q_t_0989-0998_13"
    INDEX 01 00:20:72
  TRACK 14 AUDIO
    TITLE "P1Q_t_0989-0998_14"
    INDEX 01 00:22:16
  TRACK 15 AUDIO
    TITLE "P1Q_t_0989-0998_15"
    INDEX 01 00:22:35
  TRACK 16 AUDIO
    TITLE "P1Q_t_0989-0998_16"
    INDEX 01 00:27:07
  TRACK 17 AUDIO
    TITLE "P1Q_t_0989-0998_17"
    INDEX 01 00:27:27
  TRACK 18 AUDIO
    TITLE "P1Q_t_0989-0998_18"
    INDEX 01 00:32:38
  TRACK 19 AUDIO
    TITLE "P1Q_t_0989-0998_19"
    INDEX 01 00:33:10
  TRACK 20 AUDIO
    TITLE "P1Q_t_0989-0998_20"
    INDEX 01 00:34:39
  TRACK 21 AUDIO
    TITLE "P1Q_t_0989-0998_21"
    INDEX 01 00:34:60
  TRACK 22 AUDIO
    TITLE "P1Q_t_0989-0998_22"
    INDEX 01 00:41:37
  TRACK 23 AUDIO
    TITLE "P1Q_t_0989-0998_23"
    INDEX 01 00:41:56
  TRACK 24 AUDIO
    TITLE "P1Q_t_0989-0998_24"
    INDEX 01 00:46:24
  TRACK 25 AUDIO
    TITLE "P1Q_t_0989-0998_25"
    INDEX 01 00:46:69
  TRACK 26 AUDIO
    TITLE "P1Q_t_0989-0998_26"
    INDEX 01 00:48:19
  TRACK 27 AUDIO
    TITLE "P1Q_t_0989-0998_27"
    INDEX 01 00:48:41
  TRACK 28 AUDIO
    TITLE "P1Q_t_0989-0998_28"
    INDEX 01 00:51:25
  TRACK 29 AUDIO
    TITLE "P1Q_t_0989-0998_29"
    INDEX 01 00:51:45
  TRACK 30 AUDIO
    TITLE "P1Q_t_0989-0998_30"
    INDEX 01 00:57:40
  TRACK 31 AUDIO
    TITLE "P1Q_t_0989-0998_31"
    INDEX 01 00:58:12
  TRACK 32 AUDIO
    TITLE "P1Q_t_0989-0998_32"
    INDEX 01 00:59:46
  TRACK 33 AUDIO
    TITLE "P1Q_t_0989-0998_33"
    INDEX 01 00:59:70
  TRACK 34 AUDIO
    TITLE "P1Q_t_0989-0998_34"
    INDEX 01 01:02:21
  TRACK 35 AUDIO
    TITLE "P1Q_t_0989-0998_35"
    INDEX 01 01:02:39
  TRACK 36 AUDIO
    TITLE "P1Q_t_0989-0998_36"
    INDEX 01 01:07:15
  TRACK 37 AUDIO
    TITLE "P1Q_t_0989-0998_37"
    INDEX 01 01:07:64
  TRACK 38 AUDIO
    TITLE "P1Q_t_0989-0998_38"
    INDEX 01 01:09:35
  TRACK 39 AUDIO
    TITLE "P1Q_t_0989-0998_39"
    INDEX 01 01:09:55
  TRACK 40 AUDIO
    TITLE "P1Q_t_0989-0998_40"
    INDEX 01 01:12:37
  TRACK 41 AUDIO
    TITLE "P1Q_t_0989-0998_41"
    INDEX 01 01:12:55
  TRACK 42 AUDIO
    TITLE "P1Q_t_0989-0998_42"
    INDEX 01 01:17:58
  TRACK 43 AUDIO
    TITLE "P1Q_t_0989-0998_43"
    INDEX 01 01:18:28
  TRACK 44 AUDIO
    TITLE "P1Q_t_0989-0998_44"
    INDEX 01 01:19:55
  TRACK 45 AUDIO
    TITLE "P1Q_t_0989-0998_45"
    INDEX 01 01:20:01
  TRACK 46 AUDIO
    TITLE "P1Q_t_0989-0998_46"
    INDEX 01 01:22:24
  TRACK 47 AUDIO
    TITLE "P1Q_t_0989-0998_47"
    INDEX 01 01:22:43
  TRACK 48 AUDIO
    TITLE "P1Q_t_0989-0998_48"
    INDEX 01 01:28:01
  TRACK 49 AUDIO
    TITLE "P1Q_t_0989-0998_49"
    INDEX 01 01:28:46
  TRACK 50 AUDIO
    TITLE "P1Q_t_0989-0998_50"
    INDEX 01 01:29:51
  TRACK 51 AUDIO
    TITLE "P1Q_t_0989-0998_51"
    INDEX 01 01:29:75
  TRACK 52 AUDIO
    TITLE "P1Q_t_0989-0998_52"
    INDEX 01 01:32:56
  TRACK 53 AUDIO
    TITLE "P1Q_t_0989-0998_53"
    INDEX 01 01:32:75
  TRACK 54 AUDIO
    TITLE "P1Q_t_0989-0998_54"
    INDEX 01 01:37:65
  TRACK 55 AUDIO
    TITLE "P1Q_t_0989-0998_55"
    INDEX 01 01:38:35
  TRACK 56 AUDIO
    TITLE "P1Q_t_0989-0998_56"
    INDEX 01 01:39:67
  TRACK 57 AUDIO
    TITLE "P1Q_t_0989-0998_57"
    INDEX 01 01:40:14
  TRACK 58 AUDIO
    TITLE "P1Q_t_0989-0998_58"
    INDEX 01 01:42:70
  TRACK 59 AUDIO
    TITLE "P1Q_t_0989-0998_59"
    INDEX 01 01:43:14
  TRACK 60 AUDIO
    TITLE "P1Q_t_0989-0998_60"
    INDEX 01 01:49:27
